{"asset":{"version":"2.0","generator":"THREE.JS GLTFExporter"},"scenes":[{"nodes":[0],"name":"AuxScene"}],"scene":0,"nodes":[{"mesh":0}],"meshes":[{"primitives":[{"mode":4,"attributes":{"POSITION":0,"NORMAL":1},"material":0}]}],"materials":[{"pbrMetallicRoughness":{"baseColorFactor":[0.5019607843137255,0.5019607843137255,0.5019607843137255,1],"metallicFactor":0,"roughnessFactor":1}}],"accessors":[{"bufferView":0,"componentType":5126,"count":198,"max":[12.11299991607666,0.09756600111722946,19.608001708984375],"min":[-10.086999893188477,0.09756600111722946,-13.991999626159668],"type":"VEC3"},{"bufferView":1,"componentType":5126,"count":198,"max":[0,1,0],"min":[0,1,0],"type":"VEC3"}],"bufferViews":[{"buffer":0,"byteOffset":0,"byteLength":2376,"byteStride":12,"target":34962},{"buffer":0,"byteOffset":2376,"byteLength":2376,"byteStride":12,"target":34962}],"buffers":[{"byteLength":4752,"uri":"data:application/octet-stream;base64,"}]}